# xmcd
#
# Track frame offsets: 
#        150
#        22565
#        41062
#        58847
#        74677
#        90825
#        110910
#        128175
#        144165
#        161617
#
# Disc length: 2413 seconds
#
# Revision: 1
# Processed by: cddbd v1.5.2PL0 Copyright (c) Steve Scherf et al.
# Submitted via: ExactAudioCopy v1.0b1
#
DISCID=83096b0a
DTITLE=Grupo Logos - Melhores Momentos
DYEAR=2008
DGENRE=Gospel
TTITLE0=Expressão De Louvor
TTITLE1=Situações
TTITLE2=Uma Nova Canção
TTITLE3=Sonhadores
TTITLE4=Caminhos
TTITLE5=Honrar
TTITLE6=Mão No Arado
TTITLE7=A Paz
TTITLE8=Não Temas
TTITLE9=Portas Abertas
EXTD=ID3G: 38
EXTT0=
EXTT1=
EXTT2=
EXTT3=
EXTT4=
EXTT5=
EXTT6=
EXTT7=
EXTT8=
EXTT9=
PLAYORDER=
